# xmcd
#
# Track frame offsets:
#	150
#	14463
#	34427
#	50332
#	63500
#	77975
#	97091
#	112721
#	127343
#	142954
#	156316
#	168551
#	180195
#
# Disc length: 2558 seconds
#
# Revision: 0
# Processed by: cddbd v1.5.2PL0 Copyright (c) Steve Scherf et al.
# Submitted via: EasyCDDAExtractor 15.3.0.1
#
DISCID=b109fc0d
DTITLE=Selena - Enamorada De Ti
DYEAR=2012
DGENRE=Latin
TTITLE0=No Me Queda Mas
TTITLE1=Amor Prohibido (Con Samo)
TTITLE2=Tus Desprecios
TTITLE3=Como La Flor (Con Cristian Castro)
TTITLE4=Fotos Y Recuerdos (Con Don Omar)
TTITLE5=Bidi Bidi Bom Bom (Con Selena Gomez)
TTITLE6=Ya No
TTITLE7=Techno Cumbia 2012
TTITLE8=El Chico Del Apartamento 512
TTITLE9=Enamorada De Ti (Merengue Mix) (Con Juan Magan)
TTITLE10=Cobarde (Version Acustica)
TTITLE11=Si Una Vez (Version Acustica)
TTITLE12=No Quiero Saber (Version Acustica)
EXTD=
EXTT0=
EXTT1=
EXTT2=
EXTT3=
EXTT4=
EXTT5=
EXTT6=
EXTT7=
EXTT8=
EXTT9=
EXTT10=
EXTT11=
EXTT12=
PLAYORDER=
